HIERARCHY
ROOT Hips
{
    OFFSET 0.000000 0.000000 0.000000
    CHANNELS 6 Xposition Yposition Zposition Zrotation Xrotation Yrotation
    JOINT Spine
    {
        OFFSET -0.000000 14.517291 0.000000
        CHANNELS 3 Zrotation Xrotation Yrotation
        JOINT Spine1
        {
            OFFSET -0.000000 37.558300 0.000000
            CHANNELS 3 Zrotation Xrotation Yrotation
            JOINT Neck
            {
                OFFSET -0.000000 37.404057 3.400369
                CHANNELS 3 Zrotation Xrotation Yrotation
                JOINT Head
                {
                    OFFSET -0.000000 24.785618 -3.540803
                    CHANNELS 3 Zrotation Xrotation Yrotation
                    End Site
                    {
                        OFFSET -0.000000 35.408028 0.000000
                    }
                }
            }
            JOINT LeftShoulder
            {
                OFFSET 6.992933 33.973492 -0.192664
                CHANNELS 3 Zrotation Xrotation Yrotation
                JOINT LeftArm
                {
                    OFFSET 21.527611 0.000000 0.000000
                    CHANNELS 3 Zrotation Xrotation Yrotation
                    JOINT LeftForeArm
                    {
                        OFFSET 56.353916 0.000000 0.000000
                        CHANNELS 3 Zrotation Xrotation Yrotation
                        JOINT LeftHand
                        {
                            OFFSET 47.774071 0.000000 0.000000
                            CHANNELS 3 Zrotation Xrotation Yrotation
                            End Site
                            {
                                OFFSET 26.556021 0.000000 0.000000
                            }
                        }
                    }
                }
            }
            JOINT RightShoulder
            {
                OFFSET -7.065357 33.973492 -0.192664
                CHANNELS 3 Zrotation Xrotation Yrotation
                JOINT RightArm
                {
                    OFFSET -21.527611 0.000000 0.000000
                    CHANNELS 3 Zrotation Xrotation Yrotation
                    JOINT RightForeArm
                    {
                        OFFSET -56.353916 0.000000 0.000000
                        CHANNELS 3 Zrotation Xrotation Yrotation
                        JOINT RightHand
                        {
                            OFFSET -47.774071 0.000000 0.000000
                            CHANNELS 3 Zrotation Xrotation Yrotation
                            End Site
                            {
                                OFFSET -26.556021 0.000000 0.000000
                            }
                        }
                    }
                }
            }
        }
    }
    JOINT LeftUpLeg
    {
        OFFSET 17.704014 0.000000 0.000000
        CHANNELS 3 Zrotation Xrotation Yrotation
        JOINT LeftLeg
        {
            OFFSET -0.000000 -81.181816 0.000000
            CHANNELS 3 Zrotation Xrotation Yrotation
            JOINT LeftFoot
            {
                OFFSET -0.000000 -62.821102 0.000000
                CHANNELS 3 Zrotation Xrotation Yrotation
                JOINT LeftToeBase
                {
                    OFFSET -0.000000 -11.507608 26.556021
                    CHANNELS 3 Zrotation Xrotation Yrotation
                    End Site
                    {
                        OFFSET -0.000000 0.000000 7.081605
                    }
                }
            }
        }
    }
    JOINT RightUpLeg
    {
        OFFSET -17.704014 0.000000 0.000000
        CHANNELS 3 Zrotation Xrotation Yrotation
        JOINT RightLeg
        {
            OFFSET -0.000000 -81.181816 0.000000
            CHANNELS 3 Zrotation Xrotation Yrotation
            JOINT RightFoot
            {
                OFFSET -0.000000 -62.821102 0.000000
                CHANNELS 3 Zrotation Xrotation Yrotation
                JOINT RightToeBase
                {
                    OFFSET -0.000000 -11.507608 26.556021
                    CHANNELS 3 Zrotation Xrotation Yrotation
                    End Site
                    {
                        OFFSET -0.000000 0.000000 7.081605
                    }
                }
            }
        }
    }
}
MOTION
Frames:    5
Frame Time:    0.008333
10.596828    153.957870    -100.818459    3.520108    -5.969481    47.184216    -1.521077    1.796296    -2.170218    -4.115870    4.001367    -0.587138    4.912783    4.683612    -16.878977    12.641907    0.681746    -16.429497    5.837520    8.931956    -19.005308    -26.105642    23.371096    -58.610771    -2.072558    -10.102224    -101.176483    11.038168    -13.524104    -10.058776    -9.024209    -1.548621    -3.244891    24.009939    -24.514856    52.367626    -19.089973    -11.928828    62.510715    -2.636236    -1.198159    38.409386    16.535742    -4.688208    -10.219247    -11.740935    35.662025    -21.475040    1.849939    -27.378483    39.350548    0.000000    0.000000    0.000000    -12.986927    -14.107577    21.502399    8.955048    28.200325    1.331627    4.748801    -13.229546    -15.664879    0.000000    0.000000    0.000000    
10.682246    153.988373    -100.958038    3.498191    -5.965524    47.058601    -1.503872    1.804423    -2.147534    -4.092227    3.968291    -0.581515    4.837744    4.707999    -16.885258    12.696702    0.663930    -16.417723    5.806024    8.922691    -18.985504    -26.099985    23.372408    -58.588078    -1.961548    -10.213233    -101.181068    10.697783    -13.468697    -10.011539    -9.070454    -1.569251    -3.219107    24.031773    -24.523573    52.386627    -19.071505    -11.921945    62.534019    -2.485865    -1.142439    38.312637    16.492010    -4.661744    -10.155846    -11.774085    35.637718    -21.411938    1.914761    -27.347660    39.365509    0.000000    0.000000    0.000000    -13.141246    -14.082020    20.989172    8.851883    28.054262    1.489746    4.481447    -13.064658    -15.900445    0.000000    0.000000    0.000000    
10.764673    154.019730    -101.097511    3.466281    -5.970865    46.914028    -1.461807    1.809031    -2.098451    -4.103772    3.942260    -0.565459    4.836751    4.715130    -16.882524    12.697865    0.637949    -16.411430    5.801785    8.920502    -18.973919    -26.072815    23.358358    -58.600338    -1.974301    -10.229183    -101.162636    10.734157    -13.496572    -9.952165    -9.097111    -1.581536    -3.208826    24.068472    -24.561836    52.438328    -18.844433    -12.092590    62.505886    -3.649598    -1.841143    37.473991    16.462961    -4.625339    -10.060736    -11.794204    35.612503    -21.369707    1.965461    -27.336407    39.392948    0.000000    0.000000    0.000000    -13.270718    -14.054448    20.546808    8.718134    27.797647    1.561757    4.360193    -12.787488    -16.061823    0.000000    0.000000    0.000000    
10.846456    154.049515    -101.246498    3.443702    -5.966827    46.748356    -1.423533    1.831693    -2.029715    -4.135118    3.898203    -0.543033    4.831479    4.719933    -16.883062    12.728955    0.625712    -16.405746    5.821548    8.907921    -18.976961    -26.055544    23.348230    -58.607029    -1.967486    -10.240916    -101.144592    10.745343    -13.500942    -9.958231    -9.097057    -1.594356    -3.214006    24.021383    -24.525520    52.391159    -18.864979    -12.191797    62.553932    -3.672664    -1.925758    37.450806    16.418022    -4.576050    -9.920490    -11.793666    35.574150    -21.336203    2.035763    -27.304571    39.408543    0.000000    0.000000    0.000000    -13.419060    -14.033110    20.152599    8.663424    27.605654    1.549790    4.175544    -12.600000    -16.244238    0.000000    0.000000    0.000000    
10.963394    154.067596    -101.371979    3.452440    -5.966744    46.595791    -1.411879    1.841030    -1.990366    -4.151980    3.881734    -0.529928    4.848038    4.703909    -16.864645    12.699294    0.656026    -16.396164    5.832999    8.913549    -18.958149    -26.089796    23.320295    -58.592857    -1.978826    -10.207981    -101.142540    10.781375    -13.483984    -9.951285    -9.085597    -1.556904    -3.204068    23.989155    -24.523262    52.436565    -18.946859    -12.267786    62.494274    -3.651509    -1.962280    37.561081    16.351570    -4.487779    -9.784779    -11.780970    35.541145    -21.340872    2.105070    -27.313696    39.430088    0.000000    0.000000    0.000000    -13.604997    -13.970744    19.723673    8.643961    27.422939    1.553922    3.993216    -12.511785    -16.486876    0.000000    0.000000    0.000000    
